# xmcd
#
# Track frame offsets: 
#        150
#        24024
#        42142
#        56463
#        72816
#        97322
#
# Disc length: 1639 seconds
#
# Revision: 0
# Processed by: cddbd v1.5.2PL0 Copyright (c) Steve Scherf et al.
# Submitted via: ExactAudioCopy v0.99pb5
#
DISCID=44066506
DTITLE=Soul Kitchen - Soul Kitchen
DYEAR=1996
DGENRE=Soul
TTITLE0=Baby, I love you
TTITLE1=Walking in Memphis
TTITLE2=I feel good
TTITLE3=Superstitious
TTITLE4=Proud Mary
TTITLE5=Superstitious (ext. version)
EXTD=
EXTT0=
EXTT1=
EXTT2=
EXTT3=
EXTT4=
EXTT5=
PLAYORDER=
